# xmcd
#
# Track frame offsets:
#	150
#	9352
#	19265
#	29622
#	40012
#	52062
#	65625
#	77325
#	90975
#	100690
#	115417
#	127535
#
# Disc length: 1883 seconds
#
# Revision: 1
# Processed by: cddbd v1.4PL0 Copyright (c) Steve Scherf et al.
# Submitted via: audiograbber 1.80
#
DISCID=8707590c
DTITLE=Loretta Lynn - The Best Of Volume 2
DYEAR=1900
DGENRE=
TTITLE0=Wine, Women and Song
TTITLE1=Fist City
TTITLE2=You've Just Stepped In
TTITLE3=As Soon As I Hang Up The Phone
TTITLE4=You're Lookin' At Country
TTITLE5=When The Tingle Becomes A Chill
TTITLE6=The Pill
TTITLE7=Somebody Somewhere
TTITLE8=Trouble In Paradise
TTITLE9=I Can't Feel You Anymore
TTITLE10=Out Of My Head And Back In My Bed
TTITLE11=I Lie
EXTD=
EXTT0=
EXTT1=
EXTT2=
EXTT3=
EXTT4=
EXTT5=
EXTT6=
EXTT7=
EXTT8=
EXTT9=
EXTT10=
EXTT11=
PLAYORDER=
